<svg width="55" height="55" viewBox="0 0 55 55" fill="none" xmlns="http://www.w3.org/2000/svg">
<circle cx="26.585" cy="26.7247" r="21.1475" fill="white"/>
<path fill-rule="evenodd" clip-rule="evenodd" d="M27.5 0C12.3122 0 0 12.3122 0 27.5C0 42.6878 12.3122 55 27.5 55C42.6878 55 55 42.6878 55 27.5C55 12.3122 42.6878 0 27.5 0ZM38.9602 18.0456C40.2224 18.392 41.2164 19.4125 41.5537 20.7084C42.1667 23.0572 42.1667 27.9578 42.1667 27.9578C42.1667 27.9578 42.1667 32.8584 41.5537 35.2073C41.2164 36.5032 40.2224 37.5237 38.9602 37.8702C36.6729 38.4995 27.5 38.4995 27.5 38.4995C27.5 38.4995 18.3272 38.4995 16.0397 37.8702C14.7775 37.5237 13.7835 36.5032 13.4462 35.2073C12.8334 32.8584 12.8334 27.9578 12.8334 27.9578C12.8334 27.9578 12.8334 23.0572 13.4462 20.7084C13.7835 19.4125 14.7775 18.392 16.0397 18.0456C18.3272 17.4162 27.5 17.4162 27.5 17.4162C27.5 17.4162 36.6729 17.4162 38.9602 18.0456Z" fill="#E62117"/>
<path fill-rule="evenodd" clip-rule="evenodd" d="M24.7488 33.0007V23.834L32.0821 28.4175L24.7488 33.0007Z" fill="#E62117"/>
</svg>
